<?xml version="1.0" encoding="utf-8"?><svg version="1.1" id="Layer_1" xmlns="http://www.w3.org/2000/svg" xmlns:xlink="http://www.w3.org/1999/xlink" x="0px" y="0px" width="240px" height="242.455px" viewBox="0 0 240 242.455" enable-background="new 0 0 240 242.455" xml:space="preserve"><g><path d="M15.26,242.455c-4.202,0-8.019-1.715-10.782-4.477C1.715,235.215,0,231.398,0,227.195V15.26 c0-4.203,1.715-8.019,4.478-10.782C7.241,1.714,11.058,0,15.26,0h209.479c4.203,0,8.019,1.716,10.781,4.479 C238.284,7.243,240,11.061,240,15.26v211.935c0,4.199-1.716,8.018-4.479,10.781c-2.764,2.762-6.579,4.479-10.781,4.479H15.26 L15.26,242.455z M65.622,123.273c0,2.346-1.903,4.25-4.25,4.25c-2.348,0-4.25-1.904-4.25-4.25V89.494c0-2.347,1.902-4.25,4.25-4.25 h34.319c2.347,0,4.25,1.903,4.25,4.25s-1.903,4.25-4.25,4.25H71.643l23.633,23.544c1.66,1.65,1.667,4.334,0.017,5.993 c-1.65,1.66-4.334,1.668-5.994,0.018L65.622,99.71V123.273L65.622,123.273z M141.583,90.477c-2.348,0-4.25-1.902-4.25-4.25 c0-2.347,1.902-4.25,4.25-4.25h33.777c2.348,0,4.25,1.903,4.25,4.25v34.32c0,2.348-1.902,4.25-4.25,4.25 c-2.347,0-4.25-1.902-4.25-4.25V96.498l-23.544,23.633c-1.65,1.66-4.334,1.667-5.993,0.017c-1.659-1.65-1.667-4.334-0.017-5.993 l23.588-23.678H141.583L141.583,90.477z M174.378,156.129c0-2.346,1.902-4.25,4.25-4.25c2.347,0,4.25,1.904,4.25,4.25v33.779 c0,2.346-1.903,4.25-4.25,4.25h-34.319c-2.348,0-4.25-1.904-4.25-4.25c0-2.348,1.902-4.25,4.25-4.25h24.048l-23.633-23.545 c-1.659-1.65-1.667-4.334-0.017-5.994c1.65-1.658,4.334-1.666,5.993-0.016l23.678,23.588V156.129L174.378,156.129z M98.417,188.924 c2.347,0,4.25,1.904,4.25,4.25c0,2.348-1.903,4.25-4.25,4.25H64.639c-2.347,0-4.25-1.902-4.25-4.25v-34.318 c0-2.348,1.903-4.25,4.25-4.25s4.25,1.902,4.25,4.25v24.049l23.544-23.633c1.65-1.66,4.333-1.668,5.993-0.018 s1.667,4.334,0.017,5.994l-23.588,23.676H98.417L98.417,188.924z M229.479,46.68H10.52v180.515c0,1.299,0.535,2.482,1.396,3.344 s2.046,1.396,3.344,1.396h209.479c1.297,0,2.48-0.535,3.343-1.398c0.862-0.861,1.397-2.045,1.397-3.342V46.68L229.479,46.68z"/></g></svg>